<svg width="17" height="16" viewBox="0 0 17 16" fill="none" xmlns="http://www.w3.org/2000/svg">
<path d="M0.150801 15.155C0.150801 14.275 0.150801 13.395 0.150801 12.515C0.150801 11.5983 0.150801 10.7 0.150801 9.82C0.150801 6.99666 0.554134 4.77833 1.3608 3.165C2.16747 1.55166 3.57913 0.708332 5.5958 0.634997L6.6408 2.78C5.50413 2.89 4.7158 3.44 4.2758 4.43C3.87247 5.38333 3.6708 6.905 3.6708 8.995H6.5858V15.155H0.150801ZM9.8308 15.155C9.8308 14.275 9.8308 13.395 9.8308 12.515C9.8308 11.5983 9.8308 10.7 9.8308 9.82C9.8308 6.99666 10.2341 4.77833 11.0408 3.165C11.8475 1.55166 13.2591 0.708332 15.2758 0.634997L16.3208 2.78C15.1841 2.89 14.3958 3.44 13.9558 4.43C13.5525 5.38333 13.3508 6.905 13.3508 8.995H16.2658V15.155H9.8308Z" fill="#7A7DBC"/>
</svg>
