<svg width="17" height="16" viewBox="0 0 17 16" fill="none" xmlns="http://www.w3.org/2000/svg">
<path d="M16.8492 0.845003C16.8492 1.725 16.8492 2.605 16.8492 3.485C16.8492 4.40167 16.8492 5.3 16.8492 6.18C16.8492 9.00333 16.4459 11.2217 15.6392 12.835C14.8325 14.4483 13.4209 15.2917 11.4042 15.365L10.3592 13.22C11.4959 13.11 12.2842 12.56 12.7242 11.57C13.1275 10.6167 13.3292 9.095 13.3292 7.005L10.4142 7.005L10.4142 0.845002L16.8492 0.845003ZM7.1692 0.845002C7.1692 1.725 7.1692 2.605 7.1692 3.485C7.1692 4.40167 7.1692 5.3 7.1692 6.18C7.1692 9.00333 6.76587 11.2217 5.9592 12.835C5.15253 14.4483 3.74086 15.2917 1.7242 15.365L0.679198 13.22C1.81587 13.11 2.6042 12.56 3.0442 11.57C3.44753 10.6167 3.6492 9.095 3.6492 7.005L0.7342 7.005L0.7342 0.845001L7.1692 0.845002Z" fill="#AC5097"/>
</svg>
